<?xml version="1.0" standalone="no"?>
<!DOCTYPE svg PUBLIC "-//W3C//DTD SVG 20010904//EN"
 "http://www.w3.org/TR/2001/REC-SVG-20010904/DTD/svg10.dtd">
<svg version="1.0" xmlns="http://www.w3.org/2000/svg"
 width="60.000000pt" height="60.000000pt" viewBox="0 0 60.000000 60.000000"
 preserveAspectRatio="xMidYMid meet">

<g transform="translate(0.000000,60.000000) scale(0.100000,-0.100000)"
fill="#000000" stroke="none">
<path d="M230 541 c-111 -36 -179 -128 -180 -242 0 -106 81 -212 183 -240 221
-59 401 189 274 378 -46 68 -113 107 -191 110 -33 1 -72 -1 -86 -6z m189 -54
c90 -59 125 -172 85 -275 l-18 -47 -11 28 c-16 39 -63 87 -84 87 -10 0 -33 -5
-51 -11 -24 -9 -45 -9 -85 1 -48 11 -55 11 -79 -6 -14 -11 -34 -36 -43 -58
l-18 -38 -17 38 c-21 47 -23 132 -5 177 21 49 67 98 112 119 60 28 159 21 214
-15z"/>
<path d="M255 478 c-33 -19 -44 -41 -45 -86 0 -55 41 -102 90 -102 49 0 90 47
90 103 0 38 -5 49 -31 71 -32 28 -71 33 -104 14z"/>
</g>
</svg>
